<?xml version="1.0" encoding="UTF-8" standalone="no"?>
<svg width="68px" height="60px" viewBox="0 0 68 60" version="1.1" xmlns="http://www.w3.org/2000/svg" xmlns:xlink="http://www.w3.org/1999/xlink" xmlns:sketch="http://www.bohemiancoding.com/sketch/ns">
    <!-- Generator: Sketch 3.3.3 (12081) - http://www.bohemiancoding.com/sketch -->
    <title>Group</title>
    <desc>Created with Sketch.</desc>
    <defs></defs>
    <g id="Page-1" stroke="none" stroke-width="1" fill="none" fill-rule="evenodd" sketch:type="MSPage">
        <g id="Group" sketch:type="MSLayerGroup" transform="translate(0.000000, -1.362180)" fill="#ADB7BE">
            <g transform="translate(0.010621, 0.870836)" id="Shape" sketch:type="MSShapeGroup">
                <path d="M19.6980021,0.491342957 C17.8726799,0.495556454 16.0859112,1.52901501 15.1670387,3.10611305 L0.875585831,27.8765692 C-0.0289818398,29.4578947 -0.0289818398,31.5247908 0.875585831,33.1061234 L15.1670387,57.8765795 C16.0860096,59.4536846 17.8726799,60.4877681 19.6980021,60.4913426 L48.2808096,60.4913426 C50.1061178,60.4871291 51.8927882,59.4536846 52.811759,57.8765795 L67.1032119,33.1061234 C68.007776,31.5247908 68.0076819,29.4578947 67.1032119,27.8765692 L52.811759,3.10611305 C51.8927882,1.52901501 50.1061178,0.494917407 48.2808096,0.491342957 L19.6980021,0.491342957 Z M19.957392,15.4733811 C19.9966478,15.4691676 20.0378347,15.4691676 20.0772239,15.4733811 L25.0073249,15.4733811 C25.225563,15.4775946 25.4372491,15.6037326 25.5462312,15.7927361 L33.9095531,30.6630042 C33.9516178,30.7365227 33.9787949,30.8184471 33.9890758,30.9025134 C33.9993989,30.818426 34.0264355,30.7365016 34.0685915,30.6630042 L42.4118993,15.7927361 C42.5243295,15.5980093 42.7459383,15.4714639 42.9707214,15.4733811 L47.9008294,15.4733811 C48.3373969,15.4775946 48.6643362,16.0258829 48.4597498,16.4115163 L40.2961267,30.9823662 L48.4597498,45.5332582 C48.6836902,45.9211036 48.3487172,46.4951856 47.9008294,46.4913443 L42.9707214,46.4913443 C42.7420128,46.4892375 42.5190907,46.3541247 42.4118993,46.1520313 L34.0685915,31.2817633 C34.0265268,31.2082448 33.9993497,31.1263203 33.9890758,31.042247 C33.9787527,31.1263344 33.9517161,31.2082729 33.9095531,31.2817633 L25.5462312,46.1520313 C25.442214,46.3484084 25.2293973,46.4823976 25.0073249,46.4913443 L20.0772239,46.4913443 C19.6293432,46.4955578 19.2944544,45.9211036 19.5183948,45.5332582 L27.6820109,30.9823662 L19.5183948,16.4115163 C19.3226989,16.0596752 19.5614427,15.5484796 19.957392,15.4733811 L19.957392,15.4733811 Z"></path>
            </g>
        </g>
    </g>
</svg>