<?xml version="1.0" encoding="UTF-8" standalone="no"?>
<svg width="17px" height="19px" viewBox="0 0 17 19" version="1.1" xmlns="http://www.w3.org/2000/svg" xmlns:xlink="http://www.w3.org/1999/xlink" xmlns:sketch="http://www.bohemiancoding.com/sketch/ns">
    <!-- Generator: Sketch 3.3.3 (12081) - http://www.bohemiancoding.com/sketch -->
    <title>search-icon</title>
    <desc>Created with Sketch.</desc>
    <defs></defs>
    <g id="Home---3rd-iteration" stroke="none" stroke-width="1" fill="none" fill-rule="evenodd" sketch:type="MSPage">
        <g id="home---4rd" sketch:type="MSArtboardGroup" transform="translate(-1357.000000, -107.000000)" stroke-width="2" stroke="#FFFFFF">
            <g id="hero" sketch:type="MSLayerGroup" transform="translate(0.000000, 77.000000)">
                <g id="search-icon" transform="translate(1358.000000, 31.000000)" sketch:type="MSShapeGroup">
                    <g id="Rectangle-90-+-g4552">
                        <g id="g4552">
                            <path d="M15.2572,16.6534 L12.1042,12.69066" id="path4554"></path>
                            <path d="M5.891,13.71093 C7.7369,14.20662 9.478,13.96613 11.1445,13.00585 C11.4144,12.84062 11.6702,12.67594 11.9096,12.51071 C13.1409,11.59515 13.9659,10.36385 14.3869,8.81791 C14.882,6.97206 14.6415,5.21563 13.6807,3.54973 C12.7357,1.88381 11.3244,0.81775 9.478,0.32261 C7.6322,-0.17308 5.891,0.06686 4.2246,1.01297 C2.5587,1.97379 1.4931,3.38449 0.9975,5.2309 C0.5023,7.07675 0.7276,8.81791 1.6884,10.46909 C2.6339,12.135 4.0446,13.21579 5.891,13.71093 L5.891,13.71093 Z" id="path4556"></path>
                        </g>
                    </g>
                </g>
            </g>
        </g>
    </g>
</svg>