<?xml version="1.0" encoding="UTF-8" standalone="no"?>
<!-- Created with Inkscape -->
<svg xmlns="http://www.w3.org/2000/svg" xmlns:sodipodi="http://sodipodi.sourceforge.net/DTD/sodipodi-0.dtd" xmlns:inkscape="http://www.inkscape.org/namespaces/inkscape" width="70" height="60">
  <g transform="translate(0,-992.36218)">
    <g transform="matrix(0.70224957,0,0,0.70224957,133.03354,625.99881)" style="fill:#ffffff;fill-opacity:1">
      <path style="fill:#405873;fill-opacity:0.44239631;" d="m -159.95014,521.69967 c -2.59925,0.006 -5.1436,1.47764 -6.45207,3.72342 l -20.35096,35.27301 c -1.2881,2.2518 -1.2881,5.19505 0,7.44686 l 20.35096,35.27301 c 1.30861,2.24579 3.85282,3.71832 6.45207,3.72341 l 40.70178,0 c 2.59923,-0.006 5.14344,-1.47762 6.45205,-3.72341 l 20.35096,-35.27301 c 1.288095,-2.25181 1.287961,-5.19506 0,-7.44686 l -20.35096,-35.27301 c -1.30861,-2.24578 -3.85282,-3.71833 -6.45205,-3.72342 z m 0.36937,21.33435 c 0.0559,-0.006 0.11455,-0.006 0.17064,0 l 7.02044,0 c 0.31077,0.006 0.61221,0.18562 0.7674,0.45476 l 11.90933,21.17519 c 0.0599,0.10469 0.0986,0.22135 0.11324,0.34106 0.0147,-0.11974 0.0532,-0.2364 0.11323,-0.34106 l 11.88083,-21.17519 c 0.1601,-0.27729 0.47567,-0.45749 0.79576,-0.45476 l 7.02045,0 c 0.62167,0.006 1.08723,0.78676 0.7959,1.3359 l -11.62496,20.74882 11.62496,20.7204 c 0.31889,0.55229 -0.15811,1.36978 -0.7959,1.36431 l -7.02045,0 c -0.32568,-0.003 -0.64312,-0.1954 -0.79576,-0.48318 l -11.88083,-21.17519 c -0.0599,-0.10469 -0.0986,-0.22135 -0.11323,-0.34107 -0.0147,0.11974 -0.0532,0.23642 -0.11324,0.34107 l -11.90933,21.17519 c -0.14812,0.27964 -0.45117,0.47044 -0.7674,0.48318 l -7.02044,0 c -0.63778,0.006 -1.11466,-0.81202 -0.79577,-1.36431 l 11.62495,-20.7204 -11.62495,-20.74882 c -0.27867,-0.50102 0.0613,-1.22896 0.62513,-1.3359 z" />
    </g>
  </g>
</svg>